<mxfile host="app.diagrams.net" modified="2021-04-15T14:51:14.751Z" agent="5.0 (Windows NT 10.0; Win64; x64) AppleWebKit/537.36 (KHTML, like Gecko) Chrome/90.0.4430.72 Safari/537.36" etag="XTP8OXmHdSDP1L2PAxId" version="14.6.0" type="github">
  <diagram id="LBZDEGwCrCj-avP-HCWu" name="Page-1">
    <mxGraphModel dx="1564" dy="936" grid="1" gridSize="10" guides="1" tooltips="1" connect="1" arrows="1" fold="1" page="1" pageScale="1" pageWidth="827" pageHeight="1169" math="0" shadow="0">
      <root>
        <mxCell id="0" />
        <mxCell id="1" parent="0" />
        <mxCell id="XJnTKmhuLe6zmKMpL-VK-12" value="" style="rounded=0;whiteSpace=wrap;html=1;" vertex="1" parent="1">
          <mxGeometry x="10" y="1220" width="850" height="1110" as="geometry" />
        </mxCell>
        <mxCell id="XJnTKmhuLe6zmKMpL-VK-10" value="" style="rounded=0;whiteSpace=wrap;html=1;" vertex="1" parent="1">
          <mxGeometry x="20" y="1310" width="750" height="880" as="geometry" />
        </mxCell>
        <mxCell id="T2dKCJuAUOTsMNd2c5Pi-2" value="" style="rounded=1;whiteSpace=wrap;html=1;" parent="1" vertex="1">
          <mxGeometry x="60" y="60" width="230" height="340" as="geometry" />
        </mxCell>
        <mxCell id="aS90rflTA3L6wCCtJnuh-1" value="Navbar&lt;br&gt;" style="rounded=0;whiteSpace=wrap;html=1;" parent="1" vertex="1">
          <mxGeometry x="75" y="80" width="200" height="60" as="geometry" />
        </mxCell>
        <mxCell id="aS90rflTA3L6wCCtJnuh-2" value="Todo Title" style="rounded=0;whiteSpace=wrap;html=1;" parent="1" vertex="1">
          <mxGeometry x="75" y="150" width="120" height="30" as="geometry" />
        </mxCell>
        <mxCell id="aS90rflTA3L6wCCtJnuh-3" value="+" style="rounded=0;whiteSpace=wrap;html=1;" parent="1" vertex="1">
          <mxGeometry x="205" y="150" width="70" height="30" as="geometry" />
        </mxCell>
        <mxCell id="aS90rflTA3L6wCCtJnuh-5" style="edgeStyle=orthogonalEdgeStyle;rounded=0;orthogonalLoop=1;jettySize=auto;html=1;exitX=0.5;exitY=1;exitDx=0;exitDy=0;" parent="1" source="aS90rflTA3L6wCCtJnuh-4" edge="1">
          <mxGeometry relative="1" as="geometry">
            <mxPoint x="175" y="240" as="targetPoint" />
          </mxGeometry>
        </mxCell>
        <mxCell id="T2dKCJuAUOTsMNd2c5Pi-16" style="edgeStyle=orthogonalEdgeStyle;rounded=0;orthogonalLoop=1;jettySize=auto;html=1;exitX=1;exitY=0.5;exitDx=0;exitDy=0;entryX=0.003;entryY=0.425;entryDx=0;entryDy=0;entryPerimeter=0;" parent="1" source="aS90rflTA3L6wCCtJnuh-4" target="T2dKCJuAUOTsMNd2c5Pi-4" edge="1">
          <mxGeometry relative="1" as="geometry" />
        </mxCell>
        <mxCell id="aS90rflTA3L6wCCtJnuh-4" value="Todo" style="rounded=0;whiteSpace=wrap;html=1;" parent="1" vertex="1">
          <mxGeometry x="75" y="190" width="200" height="30" as="geometry" />
        </mxCell>
        <mxCell id="aS90rflTA3L6wCCtJnuh-6" value="Todo" style="rounded=0;whiteSpace=wrap;html=1;" parent="1" vertex="1">
          <mxGeometry x="75" y="240" width="200" height="30" as="geometry" />
        </mxCell>
        <mxCell id="T2dKCJuAUOTsMNd2c5Pi-3" value="Iphone11" style="text;html=1;align=center;verticalAlign=middle;resizable=0;points=[];autosize=1;strokeColor=none;" parent="1" vertex="1">
          <mxGeometry x="139" y="40" width="60" height="20" as="geometry" />
        </mxCell>
        <mxCell id="T2dKCJuAUOTsMNd2c5Pi-4" value="" style="rounded=1;whiteSpace=wrap;html=1;" parent="1" vertex="1">
          <mxGeometry x="320" y="60" width="230" height="340" as="geometry" />
        </mxCell>
        <mxCell id="T2dKCJuAUOTsMNd2c5Pi-5" value="Navbar&lt;br&gt;" style="rounded=0;whiteSpace=wrap;html=1;" parent="1" vertex="1">
          <mxGeometry x="335" y="90" width="200" height="60" as="geometry" />
        </mxCell>
        <mxCell id="T2dKCJuAUOTsMNd2c5Pi-8" value="" style="rounded=0;whiteSpace=wrap;html=1;" parent="1" vertex="1">
          <mxGeometry x="335" y="160" width="200" height="90" as="geometry" />
        </mxCell>
        <mxCell id="T2dKCJuAUOTsMNd2c5Pi-10" value="&lt;font style=&quot;font-size: 19px&quot;&gt;ToDo title&lt;/font&gt;" style="text;html=1;align=center;verticalAlign=middle;resizable=0;points=[];autosize=1;strokeColor=none;" parent="1" vertex="1">
          <mxGeometry x="340" y="195" width="90" height="20" as="geometry" />
        </mxCell>
        <mxCell id="T2dKCJuAUOTsMNd2c5Pi-18" style="edgeStyle=orthogonalEdgeStyle;rounded=0;orthogonalLoop=1;jettySize=auto;html=1;exitX=1;exitY=0.5;exitDx=0;exitDy=0;entryX=-0.007;entryY=0.426;entryDx=0;entryDy=0;entryPerimeter=0;" parent="1" source="T2dKCJuAUOTsMNd2c5Pi-12" target="T2dKCJuAUOTsMNd2c5Pi-17" edge="1">
          <mxGeometry relative="1" as="geometry" />
        </mxCell>
        <mxCell id="T2dKCJuAUOTsMNd2c5Pi-12" value="edit btn" style="rounded=0;whiteSpace=wrap;html=1;" parent="1" vertex="1">
          <mxGeometry x="460" y="175" width="60" height="60" as="geometry" />
        </mxCell>
        <mxCell id="T2dKCJuAUOTsMNd2c5Pi-13" value="back" style="rounded=0;whiteSpace=wrap;html=1;" parent="1" vertex="1">
          <mxGeometry x="335" y="260" width="85" height="40" as="geometry" />
        </mxCell>
        <mxCell id="T2dKCJuAUOTsMNd2c5Pi-25" style="edgeStyle=orthogonalEdgeStyle;rounded=0;orthogonalLoop=1;jettySize=auto;html=1;exitX=0;exitY=1;exitDx=0;exitDy=0;entryX=1;entryY=0;entryDx=0;entryDy=0;" parent="1" source="T2dKCJuAUOTsMNd2c5Pi-15" target="T2dKCJuAUOTsMNd2c5Pi-24" edge="1">
          <mxGeometry relative="1" as="geometry" />
        </mxCell>
        <mxCell id="T2dKCJuAUOTsMNd2c5Pi-15" value="remove" style="rounded=0;whiteSpace=wrap;html=1;" parent="1" vertex="1">
          <mxGeometry x="450" y="260" width="85" height="40" as="geometry" />
        </mxCell>
        <mxCell id="T2dKCJuAUOTsMNd2c5Pi-17" value="" style="rounded=1;whiteSpace=wrap;html=1;" parent="1" vertex="1">
          <mxGeometry x="580" y="60" width="230" height="340" as="geometry" />
        </mxCell>
        <mxCell id="T2dKCJuAUOTsMNd2c5Pi-19" value="second screen if the task was clicked" style="text;html=1;align=center;verticalAlign=middle;resizable=0;points=[];autosize=1;strokeColor=none;" parent="1" vertex="1">
          <mxGeometry x="330" y="40" width="210" height="20" as="geometry" />
        </mxCell>
        <mxCell id="T2dKCJuAUOTsMNd2c5Pi-20" value="third screen if edit button is pressed" style="text;html=1;align=center;verticalAlign=middle;resizable=0;points=[];autosize=1;strokeColor=none;" parent="1" vertex="1">
          <mxGeometry x="590" y="40" width="200" height="20" as="geometry" />
        </mxCell>
        <mxCell id="T2dKCJuAUOTsMNd2c5Pi-21" value="text input" style="rounded=0;whiteSpace=wrap;html=1;" parent="1" vertex="1">
          <mxGeometry x="635" y="150" width="120" height="60" as="geometry" />
        </mxCell>
        <mxCell id="T2dKCJuAUOTsMNd2c5Pi-22" value="cancel" style="rounded=0;whiteSpace=wrap;html=1;" parent="1" vertex="1">
          <mxGeometry x="590" y="225" width="80" height="60" as="geometry" />
        </mxCell>
        <mxCell id="T2dKCJuAUOTsMNd2c5Pi-23" value="save" style="rounded=0;whiteSpace=wrap;html=1;" parent="1" vertex="1">
          <mxGeometry x="710" y="225" width="80" height="60" as="geometry" />
        </mxCell>
        <mxCell id="T2dKCJuAUOTsMNd2c5Pi-24" value="are you sure ?" style="rounded=0;whiteSpace=wrap;html=1;" parent="1" vertex="1">
          <mxGeometry x="250" y="430" width="120" height="60" as="geometry" />
        </mxCell>
        <mxCell id="T2dKCJuAUOTsMNd2c5Pi-27" value="" style="whiteSpace=wrap;html=1;aspect=fixed;" parent="1" vertex="1">
          <mxGeometry x="96" y="560" width="635" height="635" as="geometry" />
        </mxCell>
        <mxCell id="T2dKCJuAUOTsMNd2c5Pi-28" value="App" style="text;html=1;align=center;verticalAlign=middle;resizable=0;points=[];autosize=1;strokeColor=none;" parent="1" vertex="1">
          <mxGeometry x="100" y="530" width="40" height="20" as="geometry" />
        </mxCell>
        <mxCell id="T2dKCJuAUOTsMNd2c5Pi-29" value="" style="rounded=0;whiteSpace=wrap;html=1;" parent="1" vertex="1">
          <mxGeometry x="160" y="640" width="120" height="290" as="geometry" />
        </mxCell>
        <mxCell id="T2dKCJuAUOTsMNd2c5Pi-30" value="" style="rounded=0;whiteSpace=wrap;html=1;" parent="1" vertex="1">
          <mxGeometry x="354" y="640" width="120" height="290" as="geometry" />
        </mxCell>
        <mxCell id="T2dKCJuAUOTsMNd2c5Pi-32" value="2 screen" style="text;html=1;strokeColor=none;fillColor=none;align=center;verticalAlign=middle;whiteSpace=wrap;rounded=0;" parent="1" vertex="1">
          <mxGeometry x="354" y="610" width="80" height="20" as="geometry" />
        </mxCell>
        <mxCell id="T2dKCJuAUOTsMNd2c5Pi-33" value="1 screen" style="text;html=1;strokeColor=none;fillColor=none;align=center;verticalAlign=middle;whiteSpace=wrap;rounded=0;" parent="1" vertex="1">
          <mxGeometry x="160" y="610" width="80" height="20" as="geometry" />
        </mxCell>
        <mxCell id="T2dKCJuAUOTsMNd2c5Pi-34" value="Text" style="text;html=1;strokeColor=none;fillColor=none;align=center;verticalAlign=middle;whiteSpace=wrap;rounded=0;" parent="1" vertex="1">
          <mxGeometry x="200" y="660" width="40" height="20" as="geometry" />
        </mxCell>
        <mxCell id="T2dKCJuAUOTsMNd2c5Pi-37" style="edgeStyle=orthogonalEdgeStyle;rounded=0;orthogonalLoop=1;jettySize=auto;html=1;exitX=1;exitY=0.5;exitDx=0;exitDy=0;entryX=0.75;entryY=0;entryDx=0;entryDy=0;" parent="1" source="T2dKCJuAUOTsMNd2c5Pi-35" target="T2dKCJuAUOTsMNd2c5Pi-30" edge="1">
          <mxGeometry relative="1" as="geometry" />
        </mxCell>
        <mxCell id="T2dKCJuAUOTsMNd2c5Pi-38" style="edgeStyle=orthogonalEdgeStyle;rounded=0;orthogonalLoop=1;jettySize=auto;html=1;exitX=0.75;exitY=1;exitDx=0;exitDy=0;entryX=1;entryY=0;entryDx=0;entryDy=0;" parent="1" source="T2dKCJuAUOTsMNd2c5Pi-35" target="T2dKCJuAUOTsMNd2c5Pi-29" edge="1">
          <mxGeometry relative="1" as="geometry" />
        </mxCell>
        <mxCell id="T2dKCJuAUOTsMNd2c5Pi-35" value="&lt;font style=&quot;font-size: 20px&quot;&gt;State&lt;/font&gt;" style="text;html=1;strokeColor=none;fillColor=none;align=center;verticalAlign=middle;whiteSpace=wrap;rounded=0;" parent="1" vertex="1">
          <mxGeometry x="115" y="575" width="205" height="20" as="geometry" />
        </mxCell>
        <mxCell id="XJnTKmhuLe6zmKMpL-VK-3" value="" style="rounded=0;whiteSpace=wrap;html=1;" vertex="1" parent="1">
          <mxGeometry x="100" y="1350" width="620" height="760" as="geometry" />
        </mxCell>
        <mxCell id="XJnTKmhuLe6zmKMpL-VK-7" value="1 screen" style="rounded=0;whiteSpace=wrap;html=1;" vertex="1" parent="1">
          <mxGeometry x="140" y="1590" width="120" height="150" as="geometry" />
        </mxCell>
        <mxCell id="XJnTKmhuLe6zmKMpL-VK-8" value="2&amp;nbsp;screen" style="rounded=0;whiteSpace=wrap;html=1;" vertex="1" parent="1">
          <mxGeometry x="520" y="1590" width="120" height="150" as="geometry" />
        </mxCell>
        <mxCell id="XJnTKmhuLe6zmKMpL-VK-9" value="App" style="text;html=1;strokeColor=none;fillColor=none;align=center;verticalAlign=middle;whiteSpace=wrap;rounded=0;" vertex="1" parent="1">
          <mxGeometry x="130" y="1360" width="40" height="140" as="geometry" />
        </mxCell>
        <mxCell id="XJnTKmhuLe6zmKMpL-VK-11" value="TODOS Context" style="text;html=1;strokeColor=none;fillColor=none;align=center;verticalAlign=middle;whiteSpace=wrap;rounded=0;" vertex="1" parent="1">
          <mxGeometry x="30" y="1320" width="240" height="20" as="geometry" />
        </mxCell>
        <mxCell id="XJnTKmhuLe6zmKMpL-VK-14" value="screen context" style="text;html=1;strokeColor=none;fillColor=none;align=center;verticalAlign=middle;whiteSpace=wrap;rounded=0;" vertex="1" parent="1">
          <mxGeometry x="35" y="1250" width="40" height="20" as="geometry" />
        </mxCell>
      </root>
    </mxGraphModel>
  </diagram>
</mxfile>
